<svg width="111" height="35" viewBox="0 0 111 35" fill="none" xmlns="http://www.w3.org/2000/svg">
<g clip-path="url(#clip0_676_1601)">
<path d="M105.606 24.228C102.629 24.228 100.297 26.5741 100.297 29.5684C100.297 32.5626 102.629 35 105.606 35C108.583 35 111 32.6143 111 29.5684C111 26.5224 108.631 24.228 105.606 24.228ZM108.268 29.5684C108.268 31.0974 107.124 32.2489 105.606 32.2489C104.088 32.2489 103.031 31.0956 103.031 29.5684C103.031 28.0411 104.162 26.9792 105.606 26.9792C107.05 26.9792 108.268 28.1169 108.268 29.5684Z" fill="#FA198C"/>
<path d="M26.4463 0H30.2593C31.1758 0 31.9603 0.313731 32.6147 0.937746C33.269 1.56349 33.5962 2.33747 33.5962 3.2597V35H26.4463V0Z" fill="white"/>
<path d="M79.5276 21.2355C78.5632 21.6975 77.7205 22.1147 75.4988 22.5198L73.1229 23.0145C71.8844 23.3455 71.0074 23.5316 70.437 24.2987C69.9179 24.9986 69.7141 25.7484 69.7141 26.4724C69.7141 27.4602 70.0241 28.2514 70.6442 28.8444C71.2643 29.3719 72.1585 29.6339 73.3301 29.6339C76.285 29.6339 77.2426 29.2288 78.4707 28.0532C79.5722 26.9999 79.5276 25.5519 79.5276 23.7057V21.2373V21.2355ZM81.7751 33.3866C80.4715 34.0572 78.6472 34.6312 77.0387 34.8622C76.1685 34.9863 74.3031 35.0414 72.2972 34.9673C69.8203 34.876 67.65 34.3243 65.7897 33.0401C63.9311 31.7559 63.001 29.6322 63.001 26.669C63.001 23.9023 63.8438 21.9285 65.531 20.7425C67.2183 19.5566 69.3698 18.7671 71.9872 18.3723C71.9872 18.3723 74.2586 18.0431 74.8787 17.9776C77.9072 17.5828 79.4232 16.7261 79.4232 15.4091C79.4232 14.4214 78.8887 13.7801 77.8215 13.4836C76.7526 13.1871 75.7728 13.0389 74.8787 13.0389C73.9143 13.0389 73.0526 13.1716 72.2972 13.4336C71.5384 13.6974 70.9885 14.1921 70.6442 14.9161H63.7238C63.9979 12.8751 64.964 11.1961 66.6153 9.87744C68.4756 8.36222 71.1256 7.60547 74.5686 7.60547C78.4245 7.60547 81.316 8.23121 83.2448 9.48269C85.2404 10.8014 86.2407 12.6441 86.2407 15.0144V24.6038C86.2407 27.2378 85.8245 29.3581 84.7436 30.7785C83.8632 31.9334 83.2362 32.4523 81.7768 33.39" fill="white"/>
<path d="M88.7847 35V21.3199C88.7847 18.7515 89.1804 16.595 89.9735 14.8488C90.7631 13.1043 91.8474 11.7046 93.2264 10.6513C94.5334 9.66359 96.0665 8.9396 97.8223 8.47762C99.578 8.01737 101.385 7.78638 103.244 7.78638H104.277V14.8005H101.901C99.9035 14.8005 98.4235 15.2625 97.4608 16.183C96.4964 17.107 96.0151 18.5532 96.0151 20.5304V31.6127C96.0151 33.4848 94.4289 35.0017 92.4727 35.0017H88.7847V35Z" fill="white"/>
<path d="M21.7015 27.6721C20.8707 26.8964 19.6203 26.8584 18.7073 27.5342C17.2221 28.6322 15.7199 29.2442 13.6215 29.2442C9.51551 29.2442 6.42019 25.8586 6.42019 21.3681V21.294C6.42019 16.8466 9.51722 13.4921 13.6215 13.4921C15.3225 13.4921 16.859 13.9868 18.4332 15.0659C19.4096 15.7365 20.7406 15.521 21.5182 14.6264L23.9729 11.7993C21.1362 8.98782 17.9553 7.73462 13.6592 7.73462C5.87204 7.73462 0 13.5955 0 21.3681V21.4423C0 29.1718 5.77611 35.0017 13.4365 35.0017C17.9519 35.0017 21.0592 33.6399 24.1613 30.3009L24.3275 30.1216L21.7015 27.6721Z" fill="white"/>
<path d="M58.0728 11.1927C55.8014 8.82072 52.5982 7.63647 48.4682 7.63647C44.3383 7.63647 41.4794 8.8552 39.2748 11.2909C37.1404 13.6611 36.0732 16.9553 36.0732 21.17C36.0732 25.3847 37.1747 28.9754 39.3775 31.3456C41.5804 33.783 44.6449 35 48.571 35C51.8068 35 54.4927 34.2433 56.6271 32.7281C58.7597 31.2801 60.2072 29.1719 60.9643 26.4052L56.5637 26.4017C55.3252 26.4017 54.1741 26.9516 53.2971 27.8325C52.5794 28.5513 51.2861 29.2701 48.9838 29.2701C47.1921 29.2701 45.8491 28.7444 44.955 27.6894C43.9906 26.7017 43.4732 25.1865 43.4064 23.1455H61.2709C61.2709 23.1455 61.3771 22.3439 61.3771 22.0216V21.8751C61.3771 17.5276 60.2757 13.6301 58.0728 11.1927ZM43.4064 18.6998C43.475 16.9881 43.9906 15.6711 44.955 14.7489C45.9176 13.8266 47.1578 13.3664 48.6738 13.3664C50.3251 13.3664 51.5995 13.8284 52.4954 14.7489C53.3228 15.6056 53.8024 16.9209 53.9412 18.6998H43.4064Z" fill="white"/>
</g>
<defs>
<clipPath id="clip0_676_1601">
<rect width="111" height="35" fill="white"/>
</clipPath>
</defs>
</svg>
