<svg width="115" height="75" viewBox="0 0 115 75" fill="none" xmlns="http://www.w3.org/2000/svg">
<g clip-path="url(#clip0_676_1541)">
<path d="M15.6324 58.0872L15.5838 48.5242L11.2093 56.3085H9.07096L4.7208 48.7817V58.0872H0.273926V40.0439H4.2352L10.2133 50.4575L16.0456 40.0439H20.0069L20.0555 58.0872H15.6329H15.6324Z" fill="white"/>
<path d="M31.4201 51.6173V58.0872H26.6086V51.5402L20.1201 40.0439H25.1989L29.2331 47.2099L33.2673 40.0439H37.9329L31.4201 51.6173Z" fill="white"/>
<path d="M45.3617 53.2925H42.7373V58.0872H37.9253V40.0439H45.7015C50.3433 40.0439 53.2595 42.5956 53.2595 46.7202C53.2595 49.3753 52.0442 51.3344 49.9301 52.4166L53.1704 58.0872H48.0186L45.3612 53.2925H45.3617ZM45.4103 44.0646H42.7373V49.3489H45.4103C47.4029 49.3489 48.3994 48.3696 48.3994 46.7197C48.3994 45.0698 47.4029 44.0646 45.4103 44.0646Z" fill="white"/>
<path d="M55.1929 40.0439H60.0048V58.0872H55.1929V40.0439Z" fill="white"/>
<path d="M62.1428 49.0652C62.1428 43.6521 66.1522 39.6826 71.5961 39.6826C77.04 39.6826 81.0489 43.6521 81.0489 49.0652C81.0489 54.4782 77.0395 58.4477 71.5961 58.4477C66.1527 58.4477 62.1428 54.4782 62.1428 49.0652ZM76.1888 49.0652C76.1888 45.9463 74.172 43.9101 71.5961 43.9101C69.0202 43.9101 67.0029 45.9463 67.0029 49.0652C67.0029 52.1841 69.0197 54.2202 71.5961 54.2202C74.1725 54.2202 76.1888 52.1841 76.1888 49.0652Z" fill="white"/>
<path d="M82.9648 50.0395V40.0386H87.7763V49.8849C87.7763 52.978 88.9916 54.2153 91.0084 54.2153C93.0253 54.2153 94.2162 52.978 94.2162 49.8849V40.0386H98.9548V50.0395C98.9548 55.4268 95.99 58.4427 90.9598 58.4427C85.9296 58.4427 82.9648 55.4268 82.9648 50.0395Z" fill="white"/>
<path d="M100.298 56.4578L101.878 52.6947C103.385 53.7515 105.523 54.4734 107.491 54.4734C109.46 54.4734 110.262 53.8808 110.262 53.0039C110.262 50.1425 100.59 52.2309 100.59 45.5288C100.59 42.3065 103.068 39.6777 108.123 39.6777C110.334 39.6777 112.619 40.2191 114.295 41.2501L112.813 45.0391C111.185 44.1115 109.581 43.6472 108.099 43.6472C106.082 43.6472 105.353 44.369 105.353 45.2713C105.353 48.0293 115.001 45.9672 115.001 52.6176C115.001 55.7624 112.522 58.4433 107.467 58.4433C104.673 58.4433 101.903 57.644 100.298 56.4583L100.298 56.4578Z" fill="white"/>
<path d="M14.8004 69.8345V74.8563H13.6611V63.1826H17.6938C20.4337 63.1826 22.0961 63.9303 22.0961 66.4318C22.0961 68.2662 21.2034 69.1705 19.6332 69.721L22.2652 74.8563H21.0186L18.5561 69.8274M20.9573 66.4323C20.9573 64.5644 19.818 64.2506 17.6634 64.2506H14.8004V68.7843H17.6634C19.8185 68.7843 20.9573 68.2667 20.9573 66.4323Z" fill="white"/>
<path d="M23.1528 69.0202C23.1528 65.6179 25.6715 63.0835 29.094 63.0835C32.5165 63.0835 35.0189 65.6017 35.0189 69.0202C35.0189 72.4387 32.4841 74.9569 29.094 74.9569C25.7039 74.9569 23.1528 72.4219 23.1528 69.0202ZM33.8244 69.0202C33.8244 66.2353 31.8066 64.184 29.094 64.184C26.3814 64.184 24.3311 66.2353 24.3311 69.0202C24.3311 71.805 26.3652 73.8564 29.094 73.8564C31.8228 73.8564 33.8244 71.805 33.8244 69.0202Z" fill="white"/>
<path d="M55.9247 66.4318C55.9247 68.9166 54.2624 69.8513 51.5224 69.8513H48.6286V74.8563H47.4893V63.1826H51.5219C54.2619 63.1826 55.9242 63.9303 55.9242 66.4318H55.9247ZM54.7854 66.4318C54.7854 64.5639 53.6461 64.2501 51.4915 64.2501H48.6286V68.767H51.4915C53.6466 68.767 54.7854 68.2662 54.7854 66.4318Z" fill="white"/>
<path d="M36.5706 69.5848V63.1641H37.756V69.4855C37.756 71.4715 38.2193 73.939 41.1598 73.8777C42.4388 73.8513 44.4967 73.4965 44.3615 69.4855V63.1641H45.4998V69.5848C45.4487 72.9247 44.358 74.9797 41.1284 74.9797C37.8988 74.9797 36.5043 72.9253 36.5706 69.5848Z" fill="white"/>
<path d="M11.8562 69.3578C11.8405 69.9346 11.8 70.2438 11.6891 70.6757C11.4815 71.4842 11.1209 72.2182 10.5948 72.8675C9.90363 73.7211 9.03167 74.3162 7.99515 74.671C7.51511 74.8353 7.02091 74.9351 6.51505 74.9762C5.58233 75.0512 4.67138 74.9493 3.78879 74.631C2.01298 73.9903 0.698462 72.5507 0.215393 70.7234C0.0417103 70.0674 -0.0236105 69.4014 0.00829037 68.7247C0.0503185 67.8346 0.256914 66.9856 0.672638 66.1958C1.44484 64.7289 2.64188 63.7835 4.23034 63.3299C4.89773 63.1393 5.5803 63.0749 6.2725 63.1078C7.23358 63.154 8.13997 63.3963 8.98154 63.8692C9.56436 64.1966 10.0722 64.6158 10.5057 65.1248C10.5118 65.1319 10.5168 65.139 10.5244 65.1486C10.2282 65.4025 9.933 65.655 9.63475 65.9109C9.60538 65.876 9.57652 65.842 9.54765 65.8086C8.94255 65.107 8.19162 64.6366 7.30092 64.3867C6.78848 64.2428 6.26541 64.1901 5.73424 64.2118C4.96355 64.2433 4.23389 64.4308 3.56042 64.8115C2.5239 65.397 1.82613 66.2653 1.44636 67.3906C1.23622 68.0135 1.16128 68.6563 1.19115 69.3122C1.22305 70.0137 1.38256 70.6843 1.69346 71.3149C2.09248 72.1244 2.67783 72.7646 3.45307 73.2274C3.96045 73.5305 4.50884 73.7242 5.09065 73.822C5.52207 73.8945 5.95653 73.9127 6.392 73.8747C7.35966 73.7911 8.23162 73.4611 8.9861 72.8417C9.66513 72.2841 10.135 71.58 10.4181 70.7497C10.5305 70.4207 10.6257 70.1805 10.648 69.921C9.21042 69.9346 7.77539 69.9478 6.33833 69.9615V68.857C8.17592 68.8398 10.013 68.8225 11.8541 68.8053" fill="white"/>
<path d="M10.5642 0H0.273926V35.0165H10.5642V22.0442L16.6198 35.0165H26.9476L10.6017 0H10.5642Z" fill="white"/>
<path d="M55.0581 0H44.7693H44.7303L33.5417 23.9683L22.3532 0H12.0254L28.3713 35.0165H28.3844H38.699H38.7122L44.7693 22.0411V35.0165H55.0596V0H55.0581Z" fill="white"/>
</g>
<defs>
<clipPath id="clip0_676_1541">
<rect width="115" height="75" fill="white"/>
</clipPath>
</defs>
</svg>
