<svg width="111" height="35" viewBox="0 0 111 35" fill="none" xmlns="http://www.w3.org/2000/svg">
<g clip-path="url(#clip0_1673_109)">
<path d="M104.936 24.228C101.978 24.228 99.6616 26.5741 99.6616 29.5684C99.6616 32.5626 101.978 35 104.936 35C107.895 35 110.296 32.6143 110.296 29.5684C110.296 26.5224 107.942 24.228 104.936 24.228ZM107.581 29.5684C107.581 31.0974 106.444 32.2489 104.936 32.2489C103.428 32.2489 102.378 31.0956 102.378 29.5684C102.378 28.0411 103.502 26.9792 104.936 26.9792C106.371 26.9792 107.581 28.1169 107.581 29.5684Z" fill="#FA198C"/>
<path d="M26.2788 0H30.0677C30.9783 0 31.7579 0.313731 32.4081 0.937746C33.0583 1.56349 33.3834 2.33747 33.3834 3.2597V35H26.2788V0Z" fill="white"/>
<path d="M79.0234 21.2355C78.0651 21.6975 77.2277 22.1147 75.0201 22.5198L72.6593 23.0145C71.4286 23.3455 70.5572 23.5316 69.9904 24.2987C69.4746 24.9986 69.2721 25.7484 69.2721 26.4724C69.2721 27.4602 69.5802 28.2514 70.1963 28.8444C70.8125 29.3719 71.701 29.6339 72.8652 29.6339C75.8013 29.6339 76.7528 29.2288 77.9732 28.0532C79.0677 26.9999 79.0234 25.5519 79.0234 23.7057V21.2373V21.2355ZM81.2566 33.3866C79.9613 34.0572 78.1485 34.6312 76.5503 34.8622C75.6856 34.9863 73.832 35.0414 71.8388 34.9673C69.3776 34.876 67.2211 34.3243 65.3726 33.0401C63.5258 31.7559 62.6016 29.6322 62.6016 26.669C62.6016 23.9023 63.439 21.9285 65.1156 20.7425C66.7921 19.5566 68.93 18.7671 71.5308 18.3723C71.5308 18.3723 73.7878 18.0431 74.4039 17.9776C77.4132 17.5828 78.9196 16.7261 78.9196 15.4091C78.9196 14.4214 78.3885 13.7801 77.3281 13.4836C76.266 13.1871 75.2924 13.0389 74.4039 13.0389C73.4456 13.0389 72.5895 13.1716 71.8388 13.4336C71.0848 13.6974 70.5384 14.1921 70.1963 14.9161H63.3198C63.5922 12.8751 64.5522 11.1961 66.193 9.87744C68.0415 8.36222 70.6746 7.60547 74.0958 7.60547C77.9273 7.60547 80.8004 8.23121 82.717 9.48269C84.6999 10.8014 85.6939 12.6441 85.6939 15.0144V24.6038C85.6939 27.2378 85.2803 29.3581 84.2063 30.7785C83.3314 31.9334 82.7085 32.4523 81.2583 33.39" fill="white"/>
<path d="M88.2212 35.0002V21.3202C88.2212 18.7517 88.6144 16.5952 89.4024 14.849C90.1871 13.1045 91.2645 11.7048 92.6347 10.6516C93.9334 9.66384 95.4568 8.93984 97.2015 8.47786C98.9461 8.01761 100.742 7.78662 102.589 7.78662H103.615V14.8008H101.254C99.2695 14.8008 97.7989 15.2627 96.8423 16.1832C95.884 17.1072 95.4058 18.5535 95.4058 20.5307V31.613C95.4058 33.485 93.8296 35.0019 91.8858 35.0019H88.2212V35.0002Z" fill="white"/>
<path d="M21.5639 27.6723C20.7384 26.8966 19.4958 26.8587 18.5886 27.5344C17.1129 28.6325 15.6202 29.2444 13.5351 29.2444C9.45516 29.2444 6.37947 25.8589 6.37947 21.3684V21.2943C6.37947 16.8469 9.45686 13.4923 13.5351 13.4923C15.2253 13.4923 16.7521 13.9871 18.3163 15.0662C19.2865 15.7367 20.609 15.5213 21.3818 14.6266L23.8209 11.7996C21.0022 8.98806 17.8414 7.73486 13.5725 7.73486C5.83479 7.73486 0 13.5958 0 21.3684V21.4425C0 29.172 5.73948 35.0019 13.3513 35.0019C17.838 35.0019 20.9256 33.6401 24.0081 30.3011L24.1732 30.1218L21.5639 27.6723Z" fill="white"/>
<path d="M57.7045 11.1924C55.4476 8.82048 52.2646 7.63623 48.1609 7.63623C44.0571 7.63623 41.2163 8.85496 39.0257 11.2907C36.9049 13.6609 35.8445 16.9551 35.8445 21.1698C35.8445 25.3845 36.9389 28.9751 39.1278 31.3454C41.3167 33.7828 44.3618 34.9998 48.263 34.9998C51.4783 34.9998 54.1471 34.2431 56.268 32.7278C58.3871 31.2798 59.8253 29.1716 60.5777 26.4049L56.205 26.4015C54.9744 26.4015 53.8306 26.9514 52.9591 27.8323C52.2459 28.5511 50.9608 29.2699 48.6732 29.2699C46.8928 29.2699 45.5584 28.7441 44.6699 27.6892C43.7116 26.7014 43.1975 25.1862 43.1312 23.1452H60.8824C60.8824 23.1452 60.9879 22.3437 60.9879 22.0213V21.8748C60.9879 17.5274 59.8934 13.6299 57.7045 11.1924ZM43.1312 18.6996C43.1993 16.9878 43.7116 15.6709 44.6699 14.7486C45.6264 13.8264 46.8588 13.3661 48.3651 13.3661C50.0059 13.3661 51.2723 13.8281 52.1625 14.7486C52.9846 15.6054 53.4612 16.9206 53.5991 18.6996H43.1312Z" fill="white"/>
</g>
<defs>
<clipPath id="clip0_1673_109">
<rect width="110.296" height="35" fill="white"/>
</clipPath>
</defs>
</svg>
